<svg fill="none" xmlns="http://www.w3.org/2000/svg" viewBox="0 0 2150 428"><g clip-path="url(#a)"><path fill-rule="evenodd" clip-rule="evenodd" d="M191.515.161h49.387a6.043 6.043 0 0 1 6.113 6.034v321.724a5.975 5.975 0 0 1-6.193 5.873h-42.148a9.316 9.316 0 0 1-8.285-5.551l-5.148-13.677c-19.706 16.895-44.802 27.112-72.069 27.112C50.835 341.676 0 288.417 0 222.93s50.835-118.746 113.252-118.746c27.348 0 52.524 10.298 72.07 27.273V6.034A5.977 5.977 0 0 1 191.515.16Zm-129.5 222.93c0 32.824 27.67 59.453 61.694 59.453 34.104 0 61.693-26.629 61.693-59.453s-27.669-59.453-61.693-59.453-61.694 26.79-61.694 59.453ZM373.217 131.618c19.707-17.056 44.802-27.273 72.07-27.273 62.337 0 113.172 53.339 113.172 118.826 0 65.488-50.835 118.746-113.172 118.746-27.348 0-52.524-10.297-72.07-27.273l-5.148 13.677a9.595 9.595 0 0 1-8.284 5.551h-42.148a5.977 5.977 0 0 1-6.194-5.873V6.195a5.978 5.978 0 0 1 6.194-5.873h49.387a5.977 5.977 0 0 1 6.193 5.873v125.423Zm0 91.473c0 32.824 27.67 59.453 61.694 59.453s61.693-26.629 61.693-59.453-27.669-59.453-61.693-59.453-61.694 26.79-61.694 59.453ZM790.674 112.31h45.767a6.009 6.009 0 0 1 6.194 6.034v209.977a5.975 5.975 0 0 1-6.194 5.873h-42.147a9.316 9.316 0 0 1-8.285-5.551l-5.148-13.677c-19.707 16.895-44.802 27.112-72.07 27.112-62.337 0-113.171-53.258-113.171-118.746 0-65.487 50.834-118.746 113.171-118.746a109.226 109.226 0 0 1 72.07 27.112l2.574-13.676a7.52 7.52 0 0 1 7.239-5.712Zm-71.346 170.234c33.863 0 61.533-26.468 61.694-59.131v-.644c-.161-32.663-27.67-59.131-61.694-59.131s-61.693 26.79-61.693 59.453c0 32.824 27.669 59.453 61.693 59.453Z" fill="#00098A"/><path fill-rule="evenodd" clip-rule="evenodd" d="m948.331 351.057-26.728 43.154c28.61 24.843 58.62 33.789 97.547 33.757 55.8 0 122.39-21.102 122.39-107.402V109.502h-60.06v29.075c-18.29-22.985-42.68-34.706-69.87-34.706-57.214 0-99.885 41.279-99.885 115.383 0 75.519 43.145 115.383 99.885 115.383 27.67 0 52.06-13.122 69.87-35.648v23.009c0 44.554-33.79 57.217-62.37 57.217-28.575 0-52.488-7.989-70.779-28.158ZM1030.4 156.88c19.69 0 41.26 10.78 51.11 25.792v73.163c-9.85 14.545-31.42 25.8-51.11 25.808-33.768 0-57.215-23.451-57.215-62.381 0-38.931 23.431-62.382 57.215-62.382Z" fill="#3269C8"/><path d="M1359.12 336.044v-28.616c-15.48 17.353-42.67 34.24-79.72 34.24-49.71 0-73.15-27.201-73.15-71.296V109.47h59.52v137.459c0 31.424 16.41 41.746 41.73 41.746 22.98 0 41.27-12.663 51.59-25.793v-153.38h59.52v226.542h-59.49Z" fill="#3269C8"/><path fill-rule="evenodd" clip-rule="evenodd" d="M1512.77 14.296c-19.22 0-35.64 15.47-35.64 35.173 0 19.719 16.41 35.64 35.64 35.648a35.61 35.61 0 0 0 25.21-10.436 35.586 35.586 0 0 0 10.43-25.212c0-19.694-15.94-35.173-35.64-35.173Zm-29.54 95.206v226.542h59.52V109.502h-59.52ZM2036.95 103.871c-68.97 0-117.23 53.001-117.23 118.665 0 72.72 52.05 119.132 120.97 119.124 35.16 0 70.78-10.788 93.31-31.424l-26.27-38.464c-14.54 14.087-41.27 22.526-60.49 22.526-38.42 0-61.4-23.926-65.15-52.534h168.34v-13.13c0-74.079-45.91-124.763-113.48-124.763Zm-55.81 97.563c2.81-22.511 18.76-50.186 55.8-50.186 39.39 0 54.4 28.609 55.8 50.186h-111.6ZM1799.14.161h49.38c1.62-.02 3.17.608 4.32 1.741a6.03 6.03 0 0 1 1.8 4.293v321.724a5.977 5.977 0 0 1-1.87 4.237 5.961 5.961 0 0 1-4.33 1.636h-42.14a9.32 9.32 0 0 1-8.29-5.551l-5.15-13.677c-19.7 16.895-44.8 27.112-72.07 27.112-62.33 0-113.17-53.259-113.17-118.746s50.84-118.746 113.25-118.746c27.35 0 52.53 10.298 72.07 27.273V6.034c.03-1.606.7-3.133 1.87-4.237a5.96 5.96 0 0 1 4.33-1.636Zm-129.5 222.93c0 32.824 27.67 59.453 61.69 59.453 34.11 0 61.69-26.629 61.69-59.453s-27.66-59.453-61.69-59.453c-34.02 0-61.69 26.79-61.69 59.453Z" fill="#3269C8"/></g><defs><clipPath id="a"><path fill="#fff" d="M0 0h2150v428H0z"/></clipPath></defs></svg>
