<?xml version="1.0" encoding="utf-8"?>
<!-- Generator: Adobe Illustrator 21.1.0, SVG Export Plug-In . SVG Version: 6.00 Build 0)  -->
<svg version="1.1" id="Layer_1" xmlns="http://www.w3.org/2000/svg" xmlns:xlink="http://www.w3.org/1999/xlink" x="0px" y="0px"
	 viewBox="0 0 402.4 402.4" style="enable-background:new 0 0 402.4 402.4;" xml:space="preserve">
<style type="text/css">
	.st0{fill:#2AE9F8;}
	.st1{fill:#1D1D1B;}
	.st2{fill:#B93D09;}
	.st3{fill:#2DB47D;}
	.st4{fill:#FFF167;}
	.st5{fill:#B5EC93;}
	.st6{fill:#00A2A3;}
	.st7{fill:none;}
	.st8{font-family:'CircularStd-Medium';}
	.st9{font-size:11.945px;}
</style>
<path class="st0" d="M100.7,57.5L86.2,36.7C-4.8,100.4-26.9,225.7,36.8,316.6l19.8-13.9C1.6,222.8,21.1,113.3,100.7,57.5z"/>
<g>
	<g>
		<path class="st1" d="M342.5,186.1h-21.3c-4.4,0-8-3.6-8-8.1c0-4.4,3.6-8.1,8-8.1h21.3c4.4,0,8,3.6,8,8.1
			C350.5,182.4,346.9,186.1,342.5,186.1z M321.2,171.5c-3.6,0-6.5,2.9-6.5,6.5c0,3.6,2.9,6.5,6.5,6.5h21.3c3.6,0,6.5-2.9,6.5-6.5
			c0-3.6-2.9-6.5-6.5-6.5H321.2z"/>
	</g>
</g>
<g>
	<g>
		<path class="st1" d="M107,209.7h17.8c-0.1,7-9,11.5-16.1,11.5c-11.2,0-19.8-9.6-19.8-21.1c0-11.6,8.7-21,19.8-21
			c5.8,0,10.9,2.6,14.5,6.7l10.4-9c-5.8-6.6-14.7-10.9-24.9-10.9c-19.1,0-34,15.2-34,34.1c0,18.7,14.9,34,34,34
			c19.1,0,32.4-11,32.4-35.8H107V209.7z"/>
	</g>
	<g>
		<path class="st1" d="M160.3,194v-5.9h-13.4v45h13.4v-14.1c0-11.8,2.2-19.8,11.2-19.8c1,0,3.7-0.1,3.7-0.1l0-11.9c0,0-1.7,0-2.2,0
			C168.4,187.1,163.9,188,160.3,194z"/>
	</g>
	<g>
		<path class="st1" d="M260.6,187.1c-5.3,0-10.6,3-13,7.5v-6.5h-13.4v45h13.4v-23.8c0-6.8,3.6-9.1,8.3-9.1c4.5,0,7.8,3,7.8,9v24
			c2.1,0,11.2,0,13.4,0v-26.9C277.1,193.4,270.7,187.1,260.6,187.1z"/>
	</g>
	<g>
		<path class="st1" d="M313.1,188.1h-9.4v-17.2h-13.3v17.2h-8.2v10.6h8.2v16.2h0v3.5c0.2,9.1,6.3,14.6,15.5,14.6h3.2v-11.4l-0.2,0
			c-3.7,0-5.2-1.4-5.2-5.5l0-17.5h9.4V188.1z"/>
	</g>
	<g>
		<path class="st1" d="M202.2,187.1c-12.9,0-23.4,10.5-23.4,23.4c0,12.9,10.5,23.4,23.4,23.4c2.8,0,5.5-0.5,8-1.5v-13
			c-2.1,1.9-4.9,3.2-8,3.2c-6.5,0-11.9-5.3-11.9-11.9c0-6.5,5.3-11.9,11.9-11.9c6.5,0,11.8,5.3,11.9,11.8h0v0c0,0,0,0,0,0s0,0,0,0
			v19.9l0,0l0,2.4h11.6v-22.6C225.6,197.6,215.1,187.1,202.2,187.1z"/>
	</g>
</g>
<path class="st2" d="M100.9,57.3c8.4-5.9,17.2-10.9,26.3-15.2l-10.7-22.9c-12.1,5.6-19.4,9.9-30.3,17.5l14.5,20.7
	C100.8,57.4,100.8,57.3,100.9,57.3z"/>
<path class="st3" d="M204.5,25.3L205,0.4c-31.1-0.5-60.3,5.7-88.4,18.8l10.7,22.9C151.9,30.5,178.3,25,204.5,25.3z"/>
<path class="st4" d="M297.8,53.1l13.1-20.2C277.4,11.1,244.9,1.2,205,0.4l-0.4,24.9C237.3,25.7,269.7,35.2,297.8,53.1z"/>
<path class="st5" d="M346.7,99.7l19.3-13.5c-15.3-21.8-32.8-38.8-55.2-53.3l-13.1,20.2C316.4,65,333.1,80.6,346.7,99.7z"/>
<path class="st6" d="M366.1,86.2l-19.3,13.5c0.3,0.4,0.6,0.8,0.8,1.1c56.1,80.1,36.6,190.6-43.5,246.7
	c-80.1,56.1-190.6,36.6-246.7-43.5c-0.3-0.4-0.5-0.8-0.8-1.2l-19.8,13.9c63.6,90.9,188.9,113.1,279.9,49.4
	C407.6,302.4,429.7,177.1,366.1,86.2z"/>
<rect x="319.6" y="173.2" class="st7" width="64" height="35.9"/>
<text transform="matrix(1 0 0 1 319.5536 181.8662)" class="st8 st9">ApS</text>
</svg>
