<svg viewBox="0 0 362 137" fill="none" xmlns="http://www.w3.org/2000/svg">
<path d="M44.8157 34.9667H36.3184C35.5371 34.9667 34.7304 35.3827 33.9011 36.212C33.9011 36.212 25.4264 103.096 24.7437 103.096L23.9531 103.368L23.2784 102.804L15.0731 39.8747C15.0731 36.604 13.9491 34.9667 11.7037 34.9667H3.2064C2.3264 34.9667 1.52106 35.1867 0.789062 35.6267C3.61973 57.0173 8.1624 87.712 14.4144 127.711C15.1157 132.78 15.4397 135.328 17.4917 135.328H31.1171C32.9731 135.328 33.9011 133.791 33.9011 130.715C34.8771 121.631 39.3224 90.3253 47.2331 36.7987C47.0877 35.5787 46.2811 34.9667 44.8157 34.9667Z" fill="#FFFFFF"/>
<path d="M89.7195 84.7818C89.5235 87.3218 89.4261 91.0578 89.4261 95.9898V102.656V111.227C89.4261 112.303 89.3048 113.718 89.0608 115.476C87.9861 119.92 86.1781 122.143 83.6395 122.143H79.6835C75.4568 121.42 73.6035 117.528 73.6035 112.106C73.6035 112.106 73.5048 102.706 73.3101 101.192C73.5048 98.1631 73.3101 79.5818 73.3101 79.5818C73.5048 79.5818 73.6035 61.3391 73.6035 57.3831C73.6035 51.9151 75.6288 48.6671 79.6835 47.6418H82.6875C86.6915 47.6418 89.0355 51.3044 89.7195 58.6284C89.5235 62.1951 89.5235 82.0471 89.7195 84.7818ZM103.346 64.4164C103.346 54.9431 101.831 47.5431 98.8035 42.2204C93.9688 36.3098 88.6941 33.3564 82.9795 33.3564H81.8075C78.3395 33.3564 75.5075 33.8671 73.3101 34.8924C64.3728 38.8018 59.9035 46.4924 59.9035 57.9698V58.6284C59.9035 65.4671 59.8061 70.3258 59.6115 73.2071C59.8061 77.2111 59.8061 98.2378 59.6115 100.532C59.6115 110.788 60.3181 118.188 61.7355 122.73C65.6915 130.251 67.8608 132.403 72.0648 134.011C74.7995 135.623 77.8515 136.427 81.2221 136.427H82.1008C93.8701 136.427 101.691 128.742 103.346 114.232C103.545 110.627 103.053 88.0311 103.053 84.1231C103.053 84.1231 103.15 67.6898 103.346 64.4164" fill="#FFFFFF"/>
<path d="M301.428 121.264C293.516 121.069 282.894 120.97 282.894 120.97C279.588 121.041 278.938 120.264 278.938 118.848C278.938 113.622 278.842 108.346 278.646 103.022C278.842 99.5556 278.938 96.2103 278.938 92.9863C278.938 91.7663 279.646 91.1556 281.063 91.1556C281.063 91.1556 287.519 91.5676 291.002 91.1556C294.483 90.7449 300.256 91.1556 300.256 91.1556C301.672 91.1556 302.38 90.4476 302.38 89.0303V78.4089C302.039 77.5783 301.33 77.1636 300.256 77.1636H282.015C279.095 76.8462 278.646 77.2943 278.646 75.0383C278.842 70.3503 278.842 62.1703 278.646 51.6689C278.646 49.9609 279.768 49.0316 282.015 48.8862H295.64H300.256C301.868 48.6916 302.675 48.2996 302.675 47.7129V39.5089V36.4316C302.38 35.4062 301.063 34.8929 298.718 34.8929H279.232H274.103H267.73C265.679 34.8929 264.654 35.7249 264.654 37.3849V40.6809C264.654 40.6809 264.946 51.8409 264.946 54.3796L265.239 59.8743C265.043 59.8743 265.043 82.6329 265.239 89.0303C265.043 93.8663 265.239 108.81 265.239 108.81C265.043 114.624 265.239 131.57 265.239 134.012C265.58 134.842 266.312 135.256 267.436 135.256H290.806H301.722C302.551 134.768 302.967 134.353 302.967 134.012V133.717V130.348V123.388C302.967 122.265 302.455 121.557 301.428 121.264Z" fill="#FFFFFF"/>
<path d="M247.238 127.226C247.238 124.737 247.164 108.298 247.164 105.807C247.36 99.5059 247.164 92.7659 247.164 92.7659V75.6979V65.3685V56.8699V49.9125V36.5045C246.917 35.4525 245.87 34.9672 245.041 34.9672H233.83H231.341C229.086 34.9672 229.874 34.9672 228.99 35.9579C228.6 36.8365 226.31 47.5432 222.258 68.7379C220.658 78.2485 219.524 81.7819 218.886 83.0245L218.014 83.1699L217.349 82.4365L208.852 38.3365C208.852 36.0899 207.24 34.9672 204.017 34.9672H194.86H192.734C191.124 34.9672 190.317 35.6992 190.317 37.1659V53.8672C190.317 55.2352 190.614 61.0805 190.317 61.5219V69.0312V96.4285C190.512 100.142 190.512 112.205 190.317 117.675C190.512 122.215 190.472 127.49 190.472 133.693C190.472 134.377 190.984 134.889 192.01 135.23C193.904 135.23 201.656 135.255 201.656 135.255C202.682 135.255 203.301 135.002 203.496 134.221C203.301 132.513 203.43 130.666 203.43 129.542V115.55V106.759C203.43 100.703 203.301 94.4099 203.496 87.0845C203.301 84.5445 203.43 81.6072 203.43 79.0685C203.577 78.4819 203.968 78.0685 204.601 77.8219C204.846 77.8219 205.162 77.9445 205.553 78.1899C206.334 81.1672 208.46 90.7899 211.929 107.051C213.198 116.381 214.42 121.043 215.592 121.043C215.592 121.043 221.038 121.167 221.668 121.041C222.301 120.915 222.549 120.385 222.549 120.385L226.338 101.601C228.234 92.0059 231.516 77.3645 232 76.9432H232.586C233.172 77.2845 233.466 77.5792 233.466 77.8219L233.794 85.8205C233.794 85.8205 233.588 90.0085 233.83 91.2299C233.83 91.2299 233.661 114.175 233.661 116.813L233.604 125.207C233.724 126.849 233.358 129.871 233.602 133.194C233.565 135.218 234.482 135.317 234.482 135.317H241.085C242.157 135.317 243.956 135.281 246.292 135.409C247.364 135.091 247.313 133.909 247.313 133.614C247.313 132.394 247.433 130.255 247.238 127.226" fill="#FFFFFF"/>
<path d="M140.202 14.6464C139.942 12.2624 139.281 5.93174 138.785 1.27974C138.641 1.27974 138.239 1.22507 137.899 1.27974C137.338 1.36907 136.959 1.43308 136.959 1.43308C136.959 1.43308 136.802 4.77574 136.881 5.31308C136.959 5.85041 136.683 16.3677 136.725 17.7411C136.786 19.8371 136.607 26.6264 136.607 27.5997C136.607 27.5997 135.823 27.6637 134.877 27.5997C134.234 27.5557 133.145 27.5997 133.145 27.5997C133.145 27.5997 132.826 20.5744 132.913 19.4477C132.999 18.3224 132.81 16.9557 132.749 15.8757C132.494 11.3784 132.353 1.43308 132.353 1.43308C132.353 1.43308 131.742 1.31707 131.353 1.27974C130.963 1.24374 130.209 1.27974 130.209 1.27974C130.209 1.27974 129.765 12.6651 129.859 13.7397C129.954 14.8131 129.471 27.5997 129.471 27.5997L127.758 27.6637L126.047 27.5997C126.047 27.5997 125.434 9.03441 125.425 7.97041C125.414 6.69841 125.31 1.27974 125.31 1.27974C125.31 1.27974 124.841 1.24374 124.273 1.24374C123.706 1.24374 123.263 1.27974 123.263 1.27974C123.263 1.27974 122.611 15.3424 122.693 18.1584C122.774 20.9731 122.374 27.5997 122.374 27.5997C122.374 27.5997 122.395 27.4104 120.746 27.5997C118.669 27.8371 118.762 27.2584 118.762 27.2584C118.762 26.4784 118.611 22.4211 118.609 19.9624C118.606 17.4744 118.721 13.9091 118.725 12.7464C118.734 9.86374 118.53 1.43308 118.53 1.43308C118.53 1.43308 118.185 1.27974 117.77 1.27974H116.734C116.485 3.61441 115.89 6.92508 115.777 8.97175C115.678 10.7451 115.078 16.3917 115.021 18.5277C114.954 21.0051 114.458 27.3851 114.562 31.8211C114.61 33.9077 114.789 36.0024 115.683 37.9197C116.629 39.9491 118.31 41.5771 119.691 43.3811C121.019 45.1171 122.018 47.6611 122.395 48.7451C122.773 49.8277 123.831 57.2691 124.067 61.6691C124.438 68.6011 124.245 75.5437 123.758 82.4651C123.338 88.4357 122.793 97.7784 122.594 100.15C122.558 100.577 122.402 102.444 122.271 104.522C122.194 105.765 121.386 110.601 121.169 114.126C120.99 117.034 120.423 120.917 120.239 123.392C120.037 126.108 119.759 129.077 120.826 131.614C121.242 132.604 121.553 133.185 122.647 134.333C124.582 136.361 127.894 136.361 127.894 136.361C129.711 136.361 132.163 136.002 132.937 135.256C133.709 134.51 134.641 133.378 135.149 132.169C136.215 129.632 135.939 126.738 135.737 124.022C135.459 120.302 134.589 114.134 134.593 112.293C134.594 111.346 133.429 101.618 133.063 99.5824C132.734 97.7451 131.993 86.7384 131.649 81.8691C131.193 75.3611 131.318 61.4637 131.341 61.0477C131.539 57.3171 131.737 53.5411 132.279 50.6397C132.537 49.2704 134.067 45.6717 135.827 43.3717C137.209 41.5677 138.89 39.9157 139.837 37.8864C140.73 35.9691 140.909 33.9104 140.957 31.8237C141.017 29.2517 140.939 25.2877 140.789 23.1291C140.531 19.4731 140.347 15.9811 140.202 14.6464Z" fill="#FFFFFF"/>
<path d="M345.501 68.9061C344.964 75.2061 342.233 78.4821 337.885 78.4821H333.639C332.417 78.4821 331.609 77.8715 331.22 76.6501C331.22 74.9408 331.123 72.2061 330.927 68.4448C331.123 61.2661 330.927 51.0835 330.927 51.0835C331.488 49.2755 332.708 48.9581 333.929 48.9581H336.055C337.812 48.9581 339.545 49.3741 341.256 50.2048C344.088 52.4515 345.504 55.6008 345.504 59.6541C345.501 60.9528 345.501 68.9061 345.501 68.9061ZM350.047 90.6421V89.9835C355.908 83.6835 358.837 77.4075 358.837 71.1555V63.9035C358.837 62.2435 358.74 54.7461 358.544 54.7461C358.544 50.5955 356.675 45.2368 352.171 40.1675C347.584 36.5888 343.103 34.9661 338.765 34.9661H320.232C319.205 34.9661 318.303 35.2848 317.521 35.9195C316.973 37.7888 317.227 41.0475 317.227 41.0475C317.227 41.0475 317.421 63.0968 317.227 65.7341C317.421 68.1288 317.521 71.7675 317.521 76.6501V81.7781V92.7661C317.521 93.9395 317.324 112.351 317.521 113.131C317.521 113.718 317.667 131.179 317.813 132.545C317.813 134.403 318.523 135.329 319.937 135.329H328.803C330.415 135.329 331.22 134.499 331.22 132.838V113.131V108.223V95.1848C331.22 93.5728 332.124 92.7661 333.929 92.7661C334.663 92.7661 335.655 92.8275 337.008 93.6461C338.18 97.3088 341.305 109.569 346.384 130.421C346.872 133.693 347.899 135.329 349.461 135.329H359.497C360.473 135.329 361.059 135.013 361.255 134.377V133.791L350.047 90.6421Z" fill="#FFFFFF"/>
<path d="M171.426 116.878C171.003 112.694 169.57 86.4275 169.716 77.4675C169.77 74.2101 169.955 70.9581 170.15 67.7048C170.404 63.4301 170.484 49.9128 170.65 47.2461C170.816 44.5781 170.422 18.2675 170.335 12.4088C170.296 9.77413 170.255 7.13813 170.208 4.50347C170.194 3.6048 170.16 2.65413 169.596 1.89413C168.106 -0.112534 164.939 0.523467 162.924 1.4848C161.546 2.14213 160.308 2.84213 159.266 4.01146C158.39 4.99413 157.73 5.65014 157.126 6.55547C156.002 8.24213 155.016 10.2501 154.726 11.9715C154.476 13.4421 154.202 15.7701 154.035 16.8888C153.483 20.5888 153.426 24.3248 153.159 28.0355C152.732 33.9781 152.306 39.9208 151.879 45.8635C151.748 47.6755 152.114 49.0808 151.682 51.3741C151.25 53.6675 152.146 57.3701 154.154 60.1061C154.499 60.5768 154.336 60.8968 155.527 61.9368C156.882 63.1208 158.751 65.0328 159.827 66.8715C161.275 69.3435 161.902 72.0848 161.854 74.8488C161.786 78.8755 161.007 84.9301 161.064 86.9061C161.12 88.8821 160.447 92.4621 160.115 95.2381C159.407 101.162 158.182 111.27 157.988 113.011C157.738 115.265 157.322 118.587 156.987 121.377C156.94 121.771 157.058 121.69 156.85 122.567C156.556 123.802 156.236 128.467 157.103 131.323C158.219 135.001 162.206 137.181 166.098 136.235C167.447 135.906 169.196 134.931 169.588 134.445C170.291 133.575 171.392 132.262 171.806 130.999C172.595 128.589 172.35 126.031 172.098 123.537C172.098 121.338 171.647 119.071 171.426 116.878Z" fill="#FFFFFF"/>
<path d="M2.77735 12.6848H4.98535L12.772 22.8328H14.98L6.51735 11.8568L14.98 1.21816H12.772L4.98535 10.9982H2.77735V1.21816H0.968018V22.8328H2.77735V12.6848Z" fill="#FFFFFF"/>
<path d="M41.4662 21.0859H31.9622V1.21786H30.1528V22.8339H41.4662V21.0859Z" fill="#FFFFFF"/>
<path d="M68.3568 15.5669V1.21762H66.5475V15.6283C66.5475 19.1536 64.2181 21.3309 61.1208 21.3309C58.0848 21.3309 55.6941 19.2456 55.6941 15.6283V1.21762H53.8848V15.5669C53.8848 20.0123 56.8581 23.0789 61.1208 23.0789C65.3515 23.0789 68.3568 20.0123 68.3568 15.5669Z" fill="#FFFFFF"/>
<path d="M86.9095 21.0859V12.6539H92.0601C94.8815 12.6539 96.8428 13.8805 96.8428 16.5792V16.9165C96.8428 20.0739 94.7588 21.0859 91.6001 21.0859H86.9095ZM86.9095 2.99653H91.3855C94.5441 2.99653 96.6281 3.82453 96.6281 6.82853V7.19653C96.6281 9.92586 94.9721 11.1512 92.1828 11.1512H86.9095V2.99653ZM98.6215 17.0685V16.8245C98.6215 14.1259 97.3028 12.6232 94.9721 11.9192C97.1801 11.2445 98.4375 9.74186 98.4375 6.98186V6.6752C98.4375 2.62853 95.7095 1.21786 91.4161 1.21786H85.1001V22.8339H91.6308C95.9228 22.8339 98.6215 21.2085 98.6215 17.0685" fill="#FFFFFF"/>
</svg>
